<?xml version="1.0" encoding="UTF-8" standalone="no"?>
<svg
   xmlns:dc="http://purl.org/dc/elements/1.1/"
   xmlns:cc="http://creativecommons.org/ns#"
   xmlns:rdf="http://www.w3.org/1999/02/22-rdf-syntax-ns#"
   xmlns:svg="http://www.w3.org/2000/svg"
   xmlns="http://www.w3.org/2000/svg"
   xmlns:sodipodi="http://sodipodi.sourceforge.net/DTD/sodipodi-0.dtd"
   xmlns:inkscape="http://www.inkscape.org/namespaces/inkscape"
   width="210mm"
   height="297mm"
   viewBox="0 0 210 297"
   version="1.1"
   id="svg8"
   inkscape:export-filename="/home/graham/Desktop/logo.png"
   inkscape:export-xdpi="97.662582"
   inkscape:export-ydpi="97.662582"
   sodipodi:docname="mask-icon.svg"
   inkscape:version="1.0.2 (e86c870879, 2021-01-15)">
  <defs
     id="defs2">
    <rect
       x="19.102561"
       y="50.826238"
       width="184.60118"
       height="188.42972"
       id="rect42" />
    <rect
       x="30.699215"
       y="72.770821"
       width="130.9568"
       height="51.230492"
       id="rect18" />
  </defs>
  <sodipodi:namedview
     id="base"
     pagecolor="#ffffff"
     bordercolor="#666666"
     borderopacity="1.0"
     inkscape:pageopacity="0.0"
     inkscape:pageshadow="2"
     inkscape:zoom="0.65177903"
     inkscape:cx="362.11025"
     inkscape:cy="517.10386"
     inkscape:document-units="mm"
     inkscape:current-layer="layer1"
     inkscape:document-rotation="0"
     showgrid="false"
     inkscape:snap-page="false"
     inkscape:window-width="1920"
     inkscape:window-height="1023"
     inkscape:window-x="0"
     inkscape:window-y="0"
     inkscape:window-maximized="1"
     showguides="true" />
  <metadata
     id="metadata5">
    <rdf:RDF>
      <cc:Work
         rdf:about="">
        <dc:format>image/svg+xml</dc:format>
        <dc:type
           rdf:resource="http://purl.org/dc/dcmitype/StillImage" />
        <dc:title></dc:title>
      </cc:Work>
    </rdf:RDF>
  </metadata>
  <g
     inkscape:label="Layer 1"
     inkscape:groupmode="layer"
     id="layer1"
     style="display:inline">
    <text
       xml:space="preserve"
       id="text16"
       style="font-style:normal;font-weight:normal;font-size:19.7556px;line-height:1.25;font-family:sans-serif;white-space:pre;shape-inside:url(#rect18);fill:#000000;fill-opacity:1;stroke:none;"
       transform="matrix(2.5810593,0,0,2.9111375,-30.206196,-81.795549)"
       clip-path="none"
       inkscape:export-xdpi="97.662582"
       inkscape:export-ydpi="97.662582"><tspan
         x="30.699219"
         y="90.275915"><tspan
           style="font-style:normal;font-variant:normal;font-weight:normal;font-stretch:normal;font-family:'Open Sans SemiBold';-inkscape-font-specification:'Open Sans SemiBold, ';fill:#000000;fill-opacity:1">Lini</tspan></tspan></text>
    <path
       d="m 143.94762,60.082205 c -0.59972,0.282223 -1.41111,0.9525 -1.76389,1.481667 -0.67028,1.058334 -0.77611,3.386667 -0.17639,4.1275 0.3175,0.352778 -4.02166,4.868334 -19.15583,20.002501 l -19.57917,19.579167 -8.113886,-8.113889 -8.11389,-8.113889 0.38806,-1.27 c 0.52916,-1.658056 0.17639,-2.963334 -1.09361,-4.233334 -1.905,-1.940277 -5.25639,-1.164166 -6.35,1.411112 -1.27,3.139722 1.76388,6.279444 5.00944,5.150555 l 1.27,-0.423333 8.21972,8.219722 8.254996,8.255006 H 74.485674 c -26.9875,0 -28.36333,0.0353 -30.97389,0.70555 -3.77472,0.9525 -6.63222,2.57528 -9.66611,5.43278 -2.92805,2.78694 -4.90361,5.89139 -6.13833,9.56028 l -0.81139,2.46944 v 34.925 34.925 l 0.81139,2.46944 c 1.16416,3.4925 2.64583,5.92667 5.3975,8.78417 2.64583,2.78695 5.715,4.79778 9.13694,5.92667 2.15195,0.74083 3.10445,0.81139 16.1925,0.98778 l 13.93473,0.17638 -6.35,4.93889 c -4.16278,3.28084 -6.35,5.22112 -6.42056,5.715 -0.42333,2.99862 11.25361,2.54 14.81667,-0.56444 0.635,-0.52917 3.84527,-3.06917 7.09083,-5.60917 l 5.96195,-4.65666 h 20.390546 20.39056 l 5.96194,4.65666 c 3.24556,2.54 6.45584,5.08 7.09084,5.60917 3.56305,3.10444 15.24,3.56306 14.81667,0.56444 -0.0706,-0.49388 -2.25778,-2.43416 -6.42056,-5.715 l -6.35,-4.93889 13.93472,-0.17638 c 13.08806,-0.17639 14.04056,-0.24695 16.1925,-0.98778 3.42195,-1.12889 6.49111,-3.13972 9.13695,-5.92667 2.75166,-2.8575 4.23333,-5.29167 5.3975,-8.78417 l 0.81139,-2.46944 v -34.925 -34.925 l -0.81139,-2.46944 c -1.23472,-3.66889 -3.21028,-6.77334 -6.13834,-9.56028 -3.03389,-2.8575 -5.89139,-4.48028 -9.66611,-5.43278 -2.61055,-0.67028 -4.02166,-0.70555 -35.56,-0.70555 h -32.84361 l 19.57917,-19.579173 c 14.04055,-14.040556 19.72027,-19.508611 20.10833,-19.332222 0.28222,0.105833 1.19944,0.282222 2.01083,0.388055 1.34056,0.141111 1.65806,0 2.75167,-1.093611 1.34056,-1.340556 1.62278,-2.892778 0.81139,-4.621389 -0.77611,-1.799167 -3.24556,-2.645834 -5.11528,-1.834445 z m -5.22111,53.904445 c 0.98778,0.17639 3.06917,0.98778 4.69194,1.76389 5.39751,2.54 9.48973,7.62 11.00667,13.51139 0.67028,2.64583 0.70556,3.91583 0.70556,29.98611 0,26.07028 -0.0353,27.34028 -0.70556,29.98611 -1.86972,7.33778 -7.79639,13.26445 -15.16944,15.13417 -2.61056,0.635 -47.131116,1.05833 -70.908336,0.635 -16.40417,-0.3175 -17.21556,-0.35278 -19.29695,-1.09361 -6.84389,-2.46945 -12.20611,-8.60778 -13.68777,-15.73389 -0.77612,-3.66889 -0.77612,-54.22195 0,-57.85556 1.12888,-5.3975 4.33916,-10.19527 8.78416,-13.15861 4.97417,-3.31611 5.18584,-3.35139 20.32,-3.63361 18.59139,-0.3175 72.072506,0 74.259726,0.45861 z m 35.52472,57.785 c 1.62278,0.45861 3.70417,2.71639 4.02167,4.37444 0.38806,2.15195 -0.14111,3.73945 -1.76389,5.36223 -1.72861,1.76389 -3.42194,2.2225 -5.60917,1.55222 -2.96333,-0.88195 -4.79777,-3.95111 -4.1275,-6.84389 0.42334,-1.905 1.34056,-3.06917 3.175,-4.02167 1.72862,-0.88194 2.39889,-0.9525 4.30389,-0.42333 z m 5.92667,16.33361 c 0.49389,0.24695 1.16417,1.02306 1.51694,1.72861 0.56445,1.16417 0.59973,1.41111 0.10584,2.50473 -0.28222,0.70555 -0.81139,1.41111 -1.19945,1.62277 -0.45861,0.24695 -3.56305,0.38806 -8.29027,0.38806 h -7.58473 l -0.91722,-1.09361 c -1.44639,-1.69334 -1.02305,-4.05695 0.88195,-5.11528 1.16416,-0.635 14.21694,-0.67028 15.48694,-0.0353 z"
       id="path28"
       style="fill:#000000;stroke:none;stroke-width:0.0352778;fill-opacity:1"
       clip-path="none"
       inkscape:export-xdpi="97.662582"
       inkscape:export-ydpi="97.662582" />
    <text
       xml:space="preserve"
       id="text40"
       style="font-style:normal;font-weight:normal;font-size:10.5833px;line-height:1.25;font-family:sans-serif;white-space:pre;shape-inside:url(#rect42);fill:#000000;fill-opacity:1;stroke:none;" />
  </g>
</svg>
